<?xml version="1.0" encoding="UTF-8"?>
<svg width="362px" height="40px" viewBox="0 0 362 40" version="1.1" xmlns="http://www.w3.org/2000/svg" xmlns:xlink="http://www.w3.org/1999/xlink">
    <!-- Generator: Sketch 47.1 (45422) - http://www.bohemiancoding.com/sketch -->
    <title>common_title</title>
    <desc>Created with Sketch.</desc>
    <defs></defs>
    <g id="Symbols" stroke="none" stroke-width="1" fill="none" fill-rule="evenodd">
        <g id="common_title">
            <path d="M73.2043875,11.4423841 L73.2043875,14.3470199 L74.3643045,14.3470199 C74.7438897,14.3403974 74.9303758,14.1337748 74.9303758,13.7152318 L74.9303758,12.2 L76.77143,12.2 L76.77143,14.1470199 C76.77143,14.8450331 76.607428,15.3231788 76.2767789,15.6596026 C75.9461298,15.9960265 75.4924793,16.1695364 74.9290532,16.1761589 L73.0681601,16.1761589 C72.7158158,16.8741151 72.1839195,17.4653026 71.5273353,17.8887417 C70.692777,18.4066225 69.575183,19.0476821 67.9880673,19.1165563 L67.9378087,19.1165563 L67.9378087,17.2622517 L67.9854222,17.2622517 C69.1665007,17.2556291 70.0566081,16.6238411 70.6306149,16.1655629 L69.6492484,16.1655629 C69.3131203,16.1486024 68.9901497,16.029393 68.7234309,15.8238411 C68.2393607,15.4794702 68.0039385,14.8397351 68.0039385,13.8370861 L68.0039385,12.210596 L69.8039922,12.210596 L69.8039922,13.6516556 C69.8039922,14.0225166 69.8489605,14.1655629 69.8886384,14.2198675 C69.9729802,14.3053518 70.0903027,14.3498342 70.2100293,14.3417219 L71.3673011,14.3417219 L71.3673011,11.4423841 L67.8769693,11.4423841 L67.8769693,9.62649007 L68.6692045,9.62649007 L68.6692045,8.39205298 L70.4824841,8.39205298 L70.4824841,9.62649007 L74.2148511,9.62649007 L74.2148511,8.39205298 L76.0281308,8.39205298 L76.0281308,9.62649007 L76.8177208,9.62649007 L76.8177208,11.4423841 L73.2043875,11.4423841 Z M75.5004148,19.5960265 L75.5004148,18.7258278 L77.3150171,18.7258278 L77.3150171,19.5960265 L84.4848121,19.5960265 L84.4848121,21.4119205 L77.3150171,21.4119205 L77.3150171,22.7708609 L84.9384627,22.7708609 L84.9384627,24.586755 L77.3150171,24.586755 L77.3150171,24.594702 L75.5004148,24.594702 L75.5004148,24.586755 L67.8769693,24.586755 L67.8769693,22.7708609 L75.5004148,22.7708609 L75.5004148,21.4119205 L68.3292972,21.4119205 L68.3292972,19.5960265 L75.5004148,19.5960265 Z M47.2004984,20.186755 C47.1239136,20.2181716 47.0429681,20.2408492 46.9589706,20.2536809 C46.5655298,20.3137838 46.171691,20.1477037 45.9396943,19.8238566 C45.7466601,19.5543977 45.6928442,19.2136441 45.7855807,18.9028817 C45.8124087,18.7782042 45.861144,18.6616838 45.9275521,18.5575611 L47.4891612,14.8369418 C47.3282614,15.0165068 47.1078483,15.1391656 46.8610984,15.1768597 C46.4676577,15.2369626 46.0738189,15.0708825 45.8418222,14.7470354 C45.6098255,14.4231884 45.5789192,13.9963614 45.761835,13.6423841 L48.2192191,8.39470199 L50.4980527,8.4013245 C50.4903787,8.4354327 50.4806621,8.46904754 50.4689556,8.50198675 L47.9019109,14.0397351 L50.1158224,14.0397351 L48.422546,18.0675497 L51.1844802,18.0675497 L51.1844802,20.186755 L47.2004984,20.186755 Z M34.9826745,13.0066225 C35.5819699,13.0037956 36.1575928,13.240685 36.5817356,13.6646933 C37.0058785,14.0887017 37.2434384,14.6647372 37.2416691,15.2649007 L37.2416691,21.1655629 C37.2416691,22.412044 36.2326513,23.4225166 34.9879649,23.4225166 C33.7432784,23.4225166 32.7342606,22.412044 32.7342606,21.1655629 L32.7342606,15.2582781 C32.7342606,14.0147231 33.7409098,13.0066225 34.9826745,13.0066225 Z M35.0025134,5.57880795 L34.9959004,5.57880795 C36.2409521,5.57880795 37.250266,6.58957701 37.250266,7.83642384 C37.250266,9.08327067 36.2409521,10.0940397 34.9959004,10.0940397 L28.9370864,10.0940397 L28.9370864,31.8039735 C28.9073981,33.0331473 27.903871,34.0141071 26.6761079,34.0141071 C25.4483447,34.0141071 24.4448176,33.0331473 24.4151293,31.8039735 L24.4151293,17.589404 C24.3894931,16.6704434 23.6382176,15.93881 22.7202221,15.93881 C21.8022265,15.93881 21.050951,16.6704434 21.0253148,17.589404 L21.0253148,37.6066225 C21.0253148,38.8567611 20.0133363,39.8701987 18.7649976,39.8701987 C17.5166588,39.8701987 16.5046803,38.8567611 16.5046803,37.6066225 L16.5046803,22.5165563 C16.5046803,21.5787695 15.7455484,20.8185431 14.8091118,20.8185431 C13.8726751,20.8185431 13.1135432,21.5787695 13.1135432,22.5165563 L13.1135432,24.0529801 C13.1056076,24.0529801 13.1056076,24.0529801 13.1056076,24.0529801 C13.1220492,24.5034852 13.0106097,24.9494265 12.7842167,25.3390728 L8.60348951,32.2781457 C8.2306064,33.0743612 7.43163185,33.5828589 6.5534651,33.5828589 C5.67529836,33.5828589 4.87632381,33.0743612 4.5034407,32.2781457 L0.322713519,25.3403974 C0.0817125831,24.9379962 -0.0282977046,24.4704728 0.00793557833,24.002649 C0,23.9443709 0,23.8874172 0,23.8278146 L0,10.1986755 C1.53011585e-16,8.94743965 1.01286671,7.93311258 2.26230112,7.93311258 C3.51173553,7.93311258 4.52460224,8.94743965 4.52460224,10.1986755 L4.52460224,24.5986755 C4.5224088,24.9721365 4.62358239,25.3389038 4.81689605,25.6582781 C5.29175915,26.4448462 6.23180047,26.8181674 7.11589873,26.5712876 C7.99999699,26.3244077 8.61150413,25.5178245 8.61142509,24.5986755 L8.61142509,15.5298013 C8.61142509,14.2829545 9.62073892,13.2721854 10.8657906,13.2721854 C12.1108423,13.2721854 13.1201562,14.2829545 13.1201562,15.5298013 L13.1201562,17.5324503 C13.1201562,18.4702372 13.8792881,19.2304636 14.8157247,19.2304636 C15.7521614,19.2304636 16.5112933,18.4702372 16.5112933,17.5324503 L16.5112933,2.26357616 C16.5112933,1.01343757 17.5232718,-7.65489113e-17 18.7716105,0 C20.0199493,7.65489113e-17 21.0319278,1.01343757 21.0319278,2.26357616 L21.0319278,12.602649 C21.0146955,13.2203595 21.3339212,13.7986784 21.8654169,14.112623 C22.3969126,14.4265677 23.0567575,14.4265677 23.5882532,14.112623 C24.1197489,13.7986784 24.4389746,13.2203595 24.4217423,12.602649 L24.4217423,7.94966887 C24.4217423,7.90993377 24.4217423,7.87152318 24.4217423,7.83046358 C24.4217423,6.58690851 25.4283915,5.57880795 26.6701562,5.57880795 L35.0025134,5.57880795 Z M64.6273499,29.6092715 L64.6273499,29.6092715 C65.26669,29.6089201 65.8799644,29.8630168 66.3321701,30.3156262 C66.7843759,30.7682355 67.0384432,31.3822546 67.0384431,32.0225166 C67.0384429,33.3551425 65.9598205,34.4355175 64.6291131,34.4357612 C63.2984058,34.4360049 62.2193889,33.356025 62.2189021,32.0233991 C62.2184152,30.6907732 63.2966428,29.6100029 64.6273499,29.6092715 Z M64.6273499,33.6635762 L64.6273499,33.6635762 C65.0624177,33.663928 65.4797673,33.4910045 65.7874068,33.1829215 C66.0950463,32.8748384 66.2677207,32.4568872 66.2673694,32.0211921 C66.266639,31.1152051 65.5329148,30.3812137 64.628232,30.3814575 C63.7235492,30.3817014 62.9902197,31.1160882 62.9899762,32.0220754 C62.9897327,32.9280626 63.7226674,33.6628446 64.6273499,33.6635762 Z M59.0076379,29.7006623 L59.0076379,29.6993377 C60.0880668,29.6962606 61.0410144,30.4073015 61.3471387,31.4449537 C61.6532629,32.482606 61.2391751,33.5981082 60.3305468,34.1835286 C59.4219186,34.7689489 58.2365798,34.6839416 57.4205222,33.9748344 L57.4205222,34.4913907 L56.5793509,34.4913907 L56.5793509,28.2993377 L57.4205222,28.2993377 L57.4205222,30.2966887 C57.8605263,29.912926 58.4241541,29.7012608 59.0076379,29.7006623 Z M59.0076379,33.792053 C59.8640009,33.7953638 60.5811353,33.1432411 60.6602038,32.2893003 C60.7392724,31.4353595 60.1540987,30.6623049 59.3117285,30.5078718 C58.4693583,30.3534387 57.6486654,30.8687535 57.4205222,31.6953642 L57.4205222,32.5761589 C57.6178383,33.2917458 58.2663466,33.7885699 59.0076379,33.792053 Z M67.8214202,32.1350993 C67.822045,31.1815576 68.3782173,30.3160692 69.2445717,29.9204602 C70.1109261,29.5248512 71.1281216,29.6718826 71.8474036,30.2966887 L71.8474036,28.2993377 L72.6872523,28.2993377 L72.6872523,34.4913907 L71.8474036,34.4913907 L71.8474036,33.9748344 C71.1279407,34.5997973 70.1104351,34.746732 69.2439705,34.3507876 C68.3775059,33.9548433 67.8215274,33.0888809 67.8214202,32.1350993 Z M68.5964617,32.1350993 L68.5964617,32.1417219 C68.5986023,32.969893 69.2105488,33.669514 70.0300441,33.7806961 C70.8495395,33.8918781 71.625307,33.38053 71.8474036,32.5827815 L71.8474036,31.6953642 C71.62538,30.897851 70.8499918,30.3865256 70.0306958,30.4973468 C69.2113999,30.608168 68.599255,31.3071764 68.5964617,32.1350993 Z M48.0710883,34.4913907 L47.5420498,34.4913907 L45.1613763,28.2993377 L46.1070327,28.2993377 L47.8065691,32.7774834 L49.5100732,28.2993377 L50.447794,28.2993377 L48.0710883,34.4913907 Z M52.0547487,29.2715232 L51.2215129,29.2715232 L51.2215129,28.3059603 L52.0547487,28.3059603 L52.0547487,29.2715232 Z M51.2215129,34.4980132 L51.2215129,29.813245 L52.0547487,29.813245 L52.0547487,34.4913907 L51.2215129,34.4980132 Z M52.8244998,32.9801325 L53.6180576,32.9801325 C53.6097574,33.2021128 53.683184,33.4194107 53.8243826,33.5907285 C53.9503858,33.7457887 54.1406021,33.8341959 54.3401952,33.8304636 C54.5180953,33.8362486 54.6910923,33.7715191 54.8216203,33.6503311 C54.9475993,33.5303044 55.0164115,33.362122 55.0107516,33.1880795 C55.0161313,33.0378797 54.9693957,32.8904504 54.8784919,32.7708609 C54.7620638,32.6389598 54.6135238,32.5394862 54.4473255,32.4821192 C54.3785505,32.4538631 54.2828827,32.416777 54.1603221,32.3708609 C53.9366641,32.2995982 53.7232472,32.1994148 53.5254758,32.0728477 C53.3689791,31.9526392 53.2426317,31.7975385 53.1564714,31.6198675 C53.0736643,31.4360654 53.032992,31.2360313 53.0374378,31.0344371 C53.0360248,30.6718353 53.1792352,30.3236763 53.4352662,30.0672762 C53.6912972,29.8108761 54.0389549,29.6674591 54.4010347,29.6688742 C54.7527813,29.6511966 55.0964179,29.7785111 55.3519815,30.0211921 C55.6011515,30.2880106 55.7392776,30.639982 55.7381796,31.005298 L54.934041,31.005298 C54.9277543,30.8544242 54.8671498,30.7109279 54.7634261,30.6013245 C54.6555196,30.5024079 54.5127919,30.4504754 54.3666471,30.4569536 C54.2241309,30.4529631 54.0866285,30.5097767 53.9883846,30.613245 C53.8884957,30.7161481 53.8345656,30.8552303 53.8389312,30.9986755 C53.8389312,31.2635762 54.0637726,31.4728477 54.5174231,31.6397351 L54.8176525,31.7549669 C55.1184421,31.8589478 55.3835506,32.046353 55.5821132,32.2953642 C55.743877,32.5532526 55.8223842,32.8547847 55.8069546,33.1589404 C55.8184521,33.5516958 55.6649206,33.9312732 55.3837238,34.205298 C55.0980923,34.4844103 54.7113045,34.6350447 54.3124207,34.6225166 C53.9154705,34.6378184 53.5318946,34.4774821 53.2636018,34.184106 C52.9964373,33.8860927 52.8496291,33.4847682 52.8244998,32.9801325 Z M73.464939,29.813245 L74.3709175,29.813245 L75.6723524,33.0688742 L76.9949488,29.813245 L77.9009273,29.813245 L75.3879941,36.0066225 L74.5018546,36.0066225 L75.2200244,34.1721854 L73.464939,29.813245 Z M78.6667106,34.4913907 L78.6667106,28.2993377 L81.7086823,28.2993377 L81.7086823,29.2715232 L79.5012689,29.2715232 L79.5012689,30.9695364 L81.7113275,30.9695364 L81.7113275,31.7880795 L79.5012689,31.7880795 L79.5012689,34.4874172 L78.6667106,34.4913907 Z M83.3235725,29.2715232 L82.4903367,29.2715232 L82.4903367,28.3059603 L83.3235725,28.3059603 L83.3235725,29.2715232 Z M82.4916593,34.4980132 L82.4916593,29.813245 L83.3235725,29.813245 L83.3235725,34.4913907 L82.4916593,34.4980132 Z M84.7625573,34.4927152 L84.7625573,30.784106 L84.1012592,30.784106 L84.1012592,29.8211921 L84.7625573,29.8211921 L84.7625573,28.3006623 L85.5984383,28.3006623 L85.5984383,29.815894 L86.2597365,29.815894 L86.2597365,30.7788079 L85.5984383,30.7788079 L85.5984383,34.4874172 L84.7625573,34.4927152 Z M62.7598438,12.0768212 L59.4745144,12.0768212 L59.4745144,14.2953642 L62.7598438,14.2953642 L62.7598438,16.1417219 L59.4745144,16.1417219 L59.4745144,18.5125828 L62.7598438,18.5125828 L62.7598438,20.3589404 L59.4745144,20.3589404 L59.4745144,22.7205298 L62.7571986,22.7205298 L62.7571986,24.602649 L54.4856808,24.602649 C53.8561249,24.602649 53.3733773,24.4450331 53.0625671,24.1350993 C52.7256148,23.7787513 52.5471628,23.3009189 52.5679161,22.810596 L52.5679161,13.5390728 L51.11306,13.5390728 L53.7701562,8.40264901 L55.8863104,8.40264901 L54.9604929,10.1986755 L57.6400732,10.1986755 L57.6400732,8.39470199 L59.4745144,8.39470199 L59.4745144,10.1986755 L62.7598438,10.1986755 L62.7598438,12.0768212 Z M57.6400732,20.3602649 L54.4142606,20.3602649 L54.4235188,22.1549669 C54.4314544,22.5364238 54.6047145,22.7218543 54.9604929,22.7218543 L57.6400732,22.7218543 L57.6400732,20.3602649 Z M57.6400732,16.1417219 L54.412938,16.1417219 L54.412938,18.5125828 L57.6400732,18.5125828 L57.6400732,16.1417219 Z M54.412938,14.2953642 L57.6387506,14.2953642 L57.6387506,12.0768212 L54.4962616,12.0768212 L54.412938,12.2291391 L54.412938,14.2953642 Z M45.6745437,22.7231788 L51.1897706,22.7231788 L51.1897706,24.594702 L45.6745437,24.594702 L45.6745437,22.7231788 Z M84.3750366,8.81324503 C84.7493314,9.16821192 84.9384627,9.65430464 84.9371401,10.2556291 L84.9371401,15.9311258 C84.9371401,16.7907285 84.7784285,17.3960265 84.4689409,17.7324503 C84.1277111,18.1059603 83.4941874,18.2953642 82.5855637,18.2953642 C82.4625622,18.2953642 82.2522694,18.2860927 81.9798145,18.2860927 L81.9612982,18.2860927 L81.9427818,16.4887417 L82.6887262,16.4781457 C82.8274835,16.4769211 82.9560748,16.4050457 83.0299561,16.2874172 C83.083922,16.206654 83.1129054,16.1117461 83.1132796,16.0145695 L83.1132796,15.8172185 L79.0211664,15.8172185 C78.8481212,16.4116526 78.5182399,16.9483682 78.0662518,17.3708609 C77.6914106,17.7369804 77.2355268,18.0092714 76.7357199,18.1655629 L76.7105905,18.1735099 L76.7105905,18.1456954 L76.7039776,16.1099338 L76.7119131,16.1099338 C76.9624401,15.9450259 77.1523722,15.7027342 77.2528551,15.4198675 C77.3718887,15.0701987 77.430083,14.4966887 77.430083,13.7152318 L77.430083,10.7178808 C77.430083,9.93642384 77.5821816,9.33245033 77.849346,8.95761589 C78.1165105,8.58278146 78.5952904,8.39205298 79.2724597,8.39205298 L83.22041,8.39205298 C83.6457617,8.37400805 84.0609282,8.52545511 84.3750366,8.81324503 Z M83.125183,11.181457 L83.1159248,10.5748344 C83.1093119,10.3099338 82.9532455,10.1774834 82.6424353,10.1774834 L79.8292728,10.1774834 C79.5978184,10.1774834 79.4338165,10.2291391 79.3425573,10.3311258 C79.2763649,10.4524104 79.2486816,10.5910265 79.2632016,10.7284768 L79.2460078,11.181457 L83.125183,11.181457 Z M83.125183,12.9695364 L79.2446852,12.9695364 L79.2446852,14.0291391 L83.125183,14.0291391 L83.125183,12.9695364 Z M100.231645,7.93642384 L101.514563,7.93642384 L101.514563,32.7933775 L100.231645,32.7933775 L100.231645,7.93642384 Z" id="Combined-Shape" fill="#4A4A4A"></path>
            <path d="M209.21491,31.1019868 C207.212499,31.1019868 205.590996,30.8949227 204.3504,30.4807947 C203.176816,30.0657837 202.038502,29.2710817 200.935456,28.0966887 C200.318245,29.2701987 199.386696,30.4445916 198.14081,31.6198675 L196.588082,30.6927152 C199.002261,28.4128035 200.175404,25.994702 200.107511,23.4384106 L200.107511,19.184106 C200.037854,18.5660044 199.729248,18.2203091 199.181694,18.1470199 L196.904183,18.1470199 L196.904183,16.592053 L199.698829,16.592053 C201.215406,16.6618102 202.008964,17.3871965 202.079502,18.7682119 L202.079502,23.4317881 C202.081471,24.5233711 201.906831,25.6080639 201.562367,26.6437086 C202.596637,27.8198675 203.596961,28.6145695 204.563338,29.0278146 C205.949511,29.3824486 207.375577,29.5565121 208.806227,29.5456954 L220.39614,29.5456954 L219.879004,31.1006623 L209.21491,31.1019868 Z M199.382728,13.4860927 C199.03709,12.1050773 198.519514,10.4467991 197.83,8.51125828 L199.796701,8.51125828 C200.347783,9.89403974 200.934134,11.5523179 201.555754,13.4860927 L199.382728,13.4860927 Z M207.662182,26.8556291 C205.866977,26.9253863 205.004645,26.1651214 205.075183,24.5748344 L205.075183,12.9655629 C205.075183,11.3761589 205.937516,10.581457 207.662182,10.581457 L209.421235,10.581457 C209.459031,10.4296065 209.529945,10.2880254 209.628882,10.1668874 C209.972757,9.26975717 210.214352,8.64812362 210.353665,8.30198675 L212.320366,8.30198675 C212.005635,9.04712872 211.72929,9.80795236 211.492421,10.581457 L215.73531,10.581457 C217.598407,10.6512141 218.564344,11.3421634 218.633119,12.6543046 L218.633119,15.3483444 C218.633119,16.7311258 217.805173,17.4220751 216.149283,17.4211921 L207.041884,17.4211921 L207.041884,20.013245 L216.773548,20.013245 C218.497332,20.013245 219.359665,20.6693157 219.360547,21.981457 L219.360547,24.8834437 C219.360547,26.196468 218.463826,26.8529801 216.670386,26.8529801 L207.662182,26.8556291 Z M207.040561,13.2794702 L207.040561,15.9735099 L215.423177,15.9735099 C216.181466,15.9055188 216.595438,15.596468 216.665095,15.0463576 L216.665095,12.9655629 C216.595438,12.4136865 216.181466,12.1046358 215.423177,12.0384106 L208.281157,12.0384106 C207.522868,12.1046358 207.109777,12.5174393 207.041884,13.2768212 L207.040561,13.2794702 Z M216.251122,21.3589404 L207.040561,21.3589404 L207.040561,24.1576159 C207.108455,24.9187638 207.522427,25.3333333 208.282479,25.4013245 L216.14796,25.4013245 C216.975905,25.3333333 217.424265,24.9532009 217.493041,24.2609272 L217.493041,22.2927152 C217.424265,21.7399558 217.010734,21.4291391 216.252445,21.3602649 L216.251122,21.3589404 Z M224.631093,17.8370861 C223.527166,17.6993377 222.906428,17.1465784 222.768878,16.1788079 L222.768878,10.581457 C222.906428,9.54481236 223.492779,8.95761589 224.527931,8.81986755 L229.289278,8.81986755 C230.32443,8.9593819 230.910781,9.54657837 231.048331,10.581457 L231.048331,16.0741722 C230.978674,17.1796909 230.392323,17.7668874 229.289278,17.8357616 L228.66898,17.8357616 L228.66898,21.1470199 L231.152816,21.1470199 L231.152816,22.7019868 L228.66898,22.7019868 L228.66898,28.5059603 C229.634475,28.2984547 230.531196,28.0913907 231.359141,27.8847682 L231.359141,29.3417219 C228.599323,29.8935982 225.598352,30.4463576 222.356227,31 L221.942255,29.4450331 C222.152592,29.4332949 222.361027,29.3986536 222.563875,29.3417219 C222.775675,29.352724 222.98733,29.3174726 223.184173,29.2384106 L223.184173,19.3907285 L224.943226,19.3907285 L224.943226,29.1324503 C225.55806,28.9959399 226.179664,28.8920425 226.805442,28.8211921 L226.805442,17.8370861 L224.631093,17.8370861 Z M228.253685,16.4900662 C228.870896,16.4900662 229.179502,16.1810155 229.179502,15.5629139 L229.179502,11.0993377 C229.179502,10.5474614 228.870896,10.2710817 228.253685,10.2701987 L225.563524,10.2701987 C224.946312,10.2701987 224.637706,10.5465784 224.637706,11.0993377 L224.637706,15.5562914 C224.705159,16.1774834 225.051679,16.4834437 225.671977,16.4834437 L228.253685,16.4900662 Z M233.324519,30.4807947 L231.771791,29.7549669 C232.885088,27.7931489 233.654929,25.6550039 234.04798,23.4331126 L235.807033,23.4331126 C235.393501,26.0591611 234.565996,28.407947 233.324519,30.4794702 L233.324519,30.4807947 Z M231.983407,15.4529801 L231.983407,12.7576159 C231.983407,11.2388521 232.845739,10.4790287 234.570405,10.4781457 L237.985349,10.4781457 C237.972209,10.3685019 237.937122,10.2626384 237.882186,10.1668874 C237.67498,9.26975717 237.468214,8.64812362 237.261889,8.30198675 L239.331752,8.30198675 C239.421047,8.50222488 239.490593,8.71072077 239.5394,8.92450331 C239.75144,9.4277637 239.922609,9.94732839 240.051245,10.4781457 L243.466188,10.4781457 C244.845216,10.5479029 245.569558,11.2732892 245.639214,12.6543046 L245.639214,15.4529801 L243.880161,15.4529801 L243.880161,13.1721854 C243.880161,12.3430464 243.431801,11.9284768 242.535081,11.9284768 L234.98041,11.9284768 C234.220358,11.9284768 233.840773,12.3430464 233.841654,13.1721854 L233.841654,15.4516556 L231.983407,15.4529801 Z M232.087892,21.7748344 L232.087892,20.2198675 L245.541342,20.2198675 L245.541342,21.7748344 L240.159697,21.7748344 L240.159697,29.3403974 C240.090041,30.6525386 239.400086,31.3434879 238.089834,31.413245 L235.399673,31.413245 L234.9857,29.8582781 L236.952401,29.8582781 C237.71069,29.8582781 238.090275,29.5492274 238.091157,28.9311258 L238.091157,21.7788079 L232.087892,21.7748344 Z M233.432972,17.4211921 L233.432972,15.9642384 L244.505749,15.9642384 L244.505749,17.4211921 L233.432972,17.4211921 Z M244.610234,30.3761589 C243.575082,28.7178808 242.747137,26.4379691 242.126398,23.5364238 L243.885451,23.5364238 C244.301618,25.6867669 245.070768,27.7531737 246.16164,29.6516556 L244.610234,30.3761589 Z M250.188946,31.5165563 L250.188946,17.218543 C249.705757,18.0476821 249.188622,18.8768212 248.63754,19.7059603 L247.084812,18.4622517 C249.361441,15.007947 251.086107,11.5532009 252.258809,8.09801325 L254.431835,8.09801325 C253.517866,10.832008 252.339576,13.4701253 250.913729,15.9748344 L252.258809,15.9748344 L252.258809,31.5165563 L250.188946,31.5165563 Z M269.545144,31.7231788 C266.370913,30.2724062 263.921905,28.7523179 262.198121,27.1629139 C260.403799,28.7523179 257.920403,30.2724062 254.747936,31.7231788 L253.402855,30.2662252 C256.437773,29.0927152 258.921609,27.5726269 260.854363,25.7059603 C257.887339,22.1139073 256.059069,17.4503311 255.369556,11.7152318 L257.336257,11.7152318 C257.953468,16.9664459 259.574531,21.1465784 262.199444,24.2556291 C265.028036,21.0768212 266.821918,16.8966887 267.581088,11.7152318 L269.545144,11.7152318 C268.785092,17.5880795 266.818832,22.2516556 263.646364,25.7059603 C265.577355,27.5708609 267.991975,29.0909492 270.890224,30.2662252 L269.545144,31.7231788 Z M261.778858,13.1721854 C261.295669,11.5139073 260.709318,9.82119205 260.019805,8.09403974 L262.089668,8.09403974 C262.571093,9.26931567 263.191832,10.9620309 263.951884,13.1721854 L261.778858,13.1721854 Z M113.961518,29.8291391 L113.961518,28.2119205 C115.824874,28.4318978 117.699684,28.5402584 119.575939,28.5364238 C122.815419,28.60883 124.399008,27.3474614 124.326706,24.7523179 C124.397244,21.9408389 122.165583,20.5721854 117.631723,20.6463576 L115.904412,20.6463576 L115.904412,18.5827815 L117.631723,18.5827815 C122.310187,18.6551876 124.541848,17.5019868 124.326706,15.1231788 C124.326706,12.6737307 122.92299,11.4481236 120.115559,11.4463576 C118.026738,11.4463576 116.227125,11.6264901 114.71672,11.986755 L114.71672,10.1496689 C116.430875,9.62672071 118.215307,9.37162573 120.007106,9.39337748 C124.541848,9.32273731 126.809219,11.2331126 126.809219,15.1245033 C126.809219,17.0671082 125.657679,18.5810155 123.354597,19.6662252 C125.72998,20.8203091 126.881521,22.5143488 126.809219,24.7483444 C126.809219,28.5699779 124.397685,30.4803532 119.574617,30.4794702 C118.067739,30.4785872 116.196706,30.2618102 113.961518,29.8291391 Z M134.568892,30.0450331 L128.523304,30.0450331 L128.523304,9.71655629 L134.570215,9.71655629 C140.401101,9.71655629 143.280394,12.5642384 143.208092,18.2596026 L143.208092,21.6119205 C143.350932,27.3072848 140.471199,30.1183223 134.568892,30.0450331 Z M134.353309,11.8794702 L131.005817,11.8794702 L131.005817,28.0993377 L134.353309,28.0993377 C138.815749,28.2450331 140.97599,26.0816777 140.834031,21.6092715 L140.834031,18.2596026 C140.97599,13.8631347 138.815749,11.7364238 134.353309,11.8794702 Z M147.567369,31.992053 L147.567369,16.8529801 C147.422766,17.0693157 147.171031,17.4666667 146.812167,18.0450331 C146.450657,18.5501104 146.162772,18.9474614 145.948511,19.2370861 L144.328331,18.0450331 C146.51149,14.8931674 148.288978,11.4781394 149.618716,7.8807947 L151.885647,7.8807947 C150.949248,10.405298 149.653545,13.1426049 147.998536,16.0927152 L149.725847,16.0927152 L149.725847,31.986755 L147.567369,31.992053 Z M152.642172,30.2622517 L150.482372,29.7218543 C152.772154,25.0789125 154.372629,20.1259941 155.233138,15.0198675 L157.38897,15.0198675 C156.455217,20.784989 154.872951,25.8657837 152.642172,30.2622517 Z M155.989663,27.8781457 L155.989663,26.2609272 L159.121571,26.2609272 L159.121571,13.1761589 L151.562933,13.1761589 L151.562933,11.5549669 L159.121571,11.5549669 L159.121571,7.8781457 L161.388502,7.8781457 L161.388502,11.5549669 L169.059561,11.5549669 L169.059561,13.1761589 L161.388502,13.1761589 L161.388502,26.2596026 L164.62754,26.2596026 L164.62754,27.8821192 L161.388502,27.8821192 L161.388502,31.9880795 L159.121571,31.9880795 L159.121571,27.8821192 L155.989663,27.8781457 Z M167.435412,30.2622517 C165.149871,25.4258566 163.549097,20.2938554 162.679356,15.0145695 L164.730703,15.0145695 C165.558345,20.095316 167.160629,25.0185435 169.481469,29.6119205 L167.435412,30.2622517 Z M171.306652,10.581457 L171.306652,9.17615894 L184.268097,9.17615894 L184.268097,10.581457 L181.358385,10.581457 L181.358385,15.3390728 L184.921459,15.3390728 L184.921459,16.7443709 L181.358385,16.7443709 L181.358385,23.2344371 L179.307038,23.2344371 L179.307038,16.7443709 L176.283582,16.7443709 C176.166869,19.1136569 175.380736,21.4010462 174.016652,23.3403974 L172.180888,22.584106 C173.261009,20.999117 173.944791,19.0525386 174.232235,16.7443709 L170.442997,16.7443709 L170.442997,15.3390728 L174.330107,15.3390728 L174.330107,10.581457 L171.306652,10.581457 Z M171.954724,26.1523179 L171.954724,24.6357616 L181.995876,24.6357616 L181.995876,21.7218543 L184.155676,21.7218543 L184.155676,24.6357616 L193.117589,24.6357616 L193.117589,26.1496689 L184.155676,26.1496689 L184.155676,30.0423841 L194.8449,30.0423841 L194.8449,31.5562914 L170.442997,31.5562914 L170.442997,30.0450331 L181.995876,30.0450331 L181.995876,26.1523179 L171.954724,26.1523179 Z M176.381454,13.6092715 L176.381454,15.3390728 L179.291166,15.3390728 L179.291166,10.581457 L176.381454,10.581457 L176.381454,13.6092715 Z M186.423929,18.9072848 L186.423929,9.60794702 L188.259693,9.60794702 L188.259693,18.9072848 L186.423929,18.9072848 Z M187.179131,23.1245033 L186.639512,21.610596 L190.202587,21.610596 C190.996144,21.5399558 191.428193,21.0715232 191.498731,20.205298 L191.498731,7.8781457 L193.550078,7.8781457 L193.550078,20.7456954 C193.477776,22.2591611 192.614121,23.0538631 190.959112,23.1298013 L187.179131,23.1245033 Z" id="Combined-Shape" fill="#4A4A4A" fill-rule="nonzero"></path>
            <text id="管理系统" font-family="PingFangSC-Light, PingFang SC" font-size="18" font-weight="300" fill="#3E3A39">
                <tspan x="289.5" y="30">管理系统</tspan>
            </text>
        </g>
    </g>
</svg>