<?xml version="1.0" encoding="UTF-8"?>
<svg width="72px" height="72px" viewBox="0 0 72 72" version="1.1" xmlns="http://www.w3.org/2000/svg" xmlns:xlink="http://www.w3.org/1999/xlink">
    <title>dv-line</title>
    <g id="设置" stroke="none" stroke-width="1" fill="none" fill-rule="evenodd">
        <g id="设置-下一页" transform="translate(-60, -492)">
            <g id="list备份" transform="translate(12, 432)">
                <g id="dv-line" transform="translate(48, 60)">
                    <polygon id="路径" points="0 0 72 0 72 72 0 72"></polygon>
                    <path d="M24,6 C35.5979797,6 45,15.4020203 45,27 C45,34.1365407 41.4401476,40.4416334 35.9993015,44.2364194 L36,63 C36,64.6568542 34.6568542,66 33,66 L15,66 C13.3431458,66 12,64.6568542 12,63 L11.9996912,44.2357168 C11.8271532,44.1301976 11.6841265,44.0281941 11.5693608,43.9289871 C6.37368527,40.106889 3,33.9474277 3,27 C3,15.4020203 12.4020203,6 24,6 Z M17.67401,13.3952407 L17.1729453,13.6401111 L17.0319098,13.7133406 C16.7643857,13.8538525 16.5011853,14.0025408 16.2430742,14.1587914 C13.8005987,15.6348211 11.798362,17.7954468 10.5208336,20.4091246 L10.3018998,20.8784163 L10.2109962,21.0851745 C9.84176571,21.9466655 9.55201032,22.8431197 9.34844348,23.7708788 L9.31333485,23.936383 C8.84301681,26.1903038 8.90594062,28.4509851 9.42751625,30.5740357 L9.53968961,31.001655 C9.57981775,31.1479224 9.62255345,31.2934888 9.66745706,31.4382943 C9.74814387,31.6990965 9.83567637,31.9566845 9.92990791,32.211021 L9.97235987,32.3231286 C10.1088318,32.6836716 10.2594096,33.037997 10.4229014,33.3850392 C11.8034488,36.3198742 14.12895,38.8014193 17.1517818,40.3501721 L17.6657705,40.6012712 L18,40.752 L18,60 L30,60 L30,40.752 L30.2040698,40.661165 L30.482093,40.5309489 C33.6834979,38.9992176 36.1413293,36.4372676 37.5769937,33.3850694 C37.7405904,33.037997 37.8911682,32.6836716 38.0282122,32.3226828 L38.0696937,32.2110644 C38.1643236,31.9566845 38.2518561,31.6990965 38.3324753,31.4384713 L38.3982608,31.2205436 L38.5435337,30.6898825 L38.5716697,30.5736826 C39.033024,28.699165 39.1359975,26.7170117 38.8298733,24.7269444 L38.7461265,24.2373502 C38.5423672,23.142909 38.2197727,22.0902473 37.7922384,21.0932606 L37.6567097,20.7855641 C36.3913289,18.0027731 34.3157096,15.7051082 31.7564062,14.1580165 L31.3659157,13.9300288 L30.8977317,13.6766307 L30.6428204,13.5475904 L30.3255403,13.3953528 L29.9091405,13.2088297 L29.3450448,12.9803503 L28.8293083,12.7946842 C28.6598689,12.7367687 28.4885192,12.6819586 28.3158608,12.6301754 L28.0847966,12.5629444 L27.6315521,12.4425968 L27.2294662,12.348151 L26.7456758,12.2507235 L26.4604816,12.2000088 L26.015638,12.133212 L25.8352706,12.1111504 C25.2327503,12.0359602 24.6200853,11.9979997 24,11.9979997 C23.3799147,11.9979997 22.7672497,12.0359602 22.1644682,12.1098789 L21.8263597,12.1563405 L21.5394522,12.2000668 L21.0720636,12.2850995 L20.5912999,12.3889583 L20.257718,12.4705595 L20.1473698,12.4993709 C19.9921754,12.5405189 19.8378463,12.5841739 19.6844835,12.6302272 L19.4261838,12.7101192 L18.9593784,12.8679969 L18.5140307,13.0352976 C18.2297858,13.1466226 17.949623,13.2668673 17.67401,13.3952407 Z M24,36 C19.0294373,36 15,31.9705627 15,27 C15,22.0294373 19.0294373,18 24,18 C28.9705627,18 33,22.0294373 33,27 C33,31.9705627 28.9705627,36 24,36 Z M24,30 C25.6568542,30 27,28.6568542 27,27 C27,25.3431458 25.6568542,24 24,24 C22.3431458,24 21,25.3431458 21,27 C21,28.6568542 22.3431458,30 24,30 Z M21,51 L27,51 L27,57 L21,57 L21,51 Z" id="形状" fill="#CEDBF5" fill-rule="nonzero"></path>
                    <path d="M63,9 C64.6568542,9 66,10.3431458 66,12 L66,57 C66,58.6568542 64.6568542,60 63,60 L42,60 L41.999,47.126 L42.2419426,46.9070836 C47.7454015,41.8655393 51,34.7031329 51,27 C51,20.085251 48.4006494,13.7776129 44.1257764,9.00091379 L63,9 Z" id="形状结合" fill="#CEDBF5" fill-rule="nonzero"></path>
                </g>
            </g>
        </g>
    </g>
</svg>