<?xml version="1.0" encoding="UTF-8"?>
<svg width="48px" height="48px" viewBox="0 0 48 48" version="1.1" xmlns="http://www.w3.org/2000/svg" xmlns:xlink="http://www.w3.org/1999/xlink">
    <title>USB</title>
    <defs>
        <path d="M3,5.68434189e-14 L27,5.68434189e-14 L27,12 L28.5,12 C29.3284271,12 30,12.6715729 30,13.5 L30,18 C30,21.3137085 27.3137085,24 24,24 L16,24 L16,27 L27,27 L27,30 L16,30 C14.3431458,30 13,28.6568542 13,27 L13,24 L6,24 C2.6862915,24 0,21.3137085 0,18 L0,13.5 C0,12.6715729 0.671572875,12 1.5,12 L3,12 L3,5.68434189e-14 Z M27,15 L3,15 L3,18 C3,19.6568542 4.34314575,21 6,21 L24,21 C25.6568542,21 27,19.6568542 27,18 L27,15 Z M12,6 L12,9 L9,9 L9,6 L12,6 Z M21,6 L21,9 L18,9 L18,6 L21,6 Z M24,12 L24,3 L6,3 L6,12 L24,12 Z" id="path-1"></path>
    </defs>
    <g id="USB" stroke="none" stroke-width="1" fill="none" fill-rule="evenodd">
        <g>
            <rect id="矩形" x="0" y="0" width="48" height="48"></rect>
            <polygon id="路径" points="6 6 42 6 42 42 6 42"></polygon>
            <g id="白色" transform="translate(9.000000, 9.000000)">
                <mask id="mask-2" fill="white">
                    <use xlink:href="#path-1"></use>
                </mask>
                <use id="Mask" fill="#000000" fill-rule="nonzero" xlink:href="#path-1"></use>
                <g id="Group" mask="url(#mask-2)">
                    <g transform="translate(-44.000000, -9.000000)">
                        <rect id="Rectangle" fill="#000000" x="0" y="0" width="118" height="48"></rect>
                    </g>
                </g>
            </g>
        </g>
    </g>
</svg>