<?xml version="1.0" encoding="UTF-8"?>
<svg width="284px" height="170px" viewBox="0 0 284 170" version="1.1" xmlns="http://www.w3.org/2000/svg" xmlns:xlink="http://www.w3.org/1999/xlink">
    <!-- Generator: Sketch 53.2 (72643) - https://sketchapp.com -->
    <title>not support</title>
    <desc>Created with Sketch.</desc>
    <defs>
        <linearGradient x1="50%" y1="0%" x2="50%" y2="100%" id="linearGradient-1">
            <stop stop-color="#006FD0" offset="0%"></stop>
            <stop stop-color="#0092FF" offset="100%"></stop>
        </linearGradient>
        <path d="M3.84459499,5.06052118 L129.844595,0.16156467 C132.052066,0.0757368528 133.911152,1.79566857 133.99698,4.00313968 C133.998993,4.0549169 134,4.10672835 134,4.15854469 L134,113.727284 C134,115.936423 132.209139,117.727284 130,117.727284 C129.912115,117.727284 129.824255,117.724388 129.736561,117.7186 L3.73656094,109.402214 C1.63426137,109.263456 -6.28192611e-13,107.517772 -6.35935749e-13,105.410898 L-6.39932551e-13,9.0575012 C-6.40195688e-13,6.90882549 1.69754153,5.14399992 3.84459499,5.06052118 Z" id="path-2"></path>
    </defs>
    <g id="1920" stroke="none" stroke-width="1" fill="none" fill-rule="evenodd">
        <g id="首页预览体态浏览器不支持" transform="translate(-1451.000000, -467.000000)">
            <g id="体态" transform="translate(1332.000000, 213.000000)">
                <g id="not-support" transform="translate(119.000000, 254.000000)">
                    <path d="M45.8920081,162 C106.3306,172.506869 179.113147,172.506869 264.239649,162 C276.971643,155.055868 283.337641,147.210272 283.337641,138.463212 C283.337641,125.342623 251.178521,134 235.221663,106.9238 C219.264805,79.8476 235.460448,47.8622612 221.568741,34 C207.677033,20.1377388 145.022637,51.3811678 117.896644,39.8999458 C90.7706503,28.4187238 104.444347,2.29173626 89.6692993,0.0531523545 C74.8942517,-2.18543155 22.3727345,66.7430866 25.4690066,120.491228 C27.1690407,150.002095 -44.7658799,146.239697 45.8920081,162 Z" id="Path-3" fill="#EDF8FF" transform="translate(141.668820, 84.940076) scale(-1, 1) translate(-141.668820, -84.940076) "></path>
                    <g id="Oval" transform="translate(85.000000, 25.000000)">
                        <mask id="mask-3" fill="white">
                            <use xlink:href="#path-2"></use>
                        </mask>
                        <use id="Mask" fill="url(#linearGradient-1)" xlink:href="#path-2"></use>
                        <ellipse fill="#0081E8" mask="url(#mask-3)" cx="66" cy="125.5" rx="87" ry="33.5"></ellipse>
                        <polygon id="Path-2" fill="#1D4C99" mask="url(#mask-3)" points="0 19.0925293 134 16.5 134 -4.1258947 0 3.95925178"></polygon>
                    </g>
                    <g id="Group-2" transform="translate(167.000000, 135.000000)" fill="#8ED2FF">
                        <path d="M8.27188329,7 L22.8103448,7 C23.5026764,7 24.0636605,7.5595 24.0636605,8.25 C24.0636605,8.9405 23.5026764,9.5 22.8103448,9.5 L8.27188329,9.5 C7.57955172,9.5 7.5198939,8.9405 7.5198939,8.25 C7.5198939,7.5595 7.57955172,7 8.27188329,7" id="Fill-23"></path>
                        <path d="M22.5596817,0 C24.2205756,0 25.5676393,1.3435 25.5676393,3 L25.5676393,15 C25.5676393,16.6565 24.2205756,18 22.5596817,18 C20.8987878,18 19.5517241,16.6565 19.5517241,15 L19.5517241,3 C19.5517241,1.3435 20.8987878,0 22.5596817,0" id="Fill-25"></path>
                        <path d="M28.0742706,4.5 L28.5755968,4.5 C29.4057931,4.5 30.0795756,5.172 30.0795756,6 L30.0795756,12.5 C30.0795756,13.3285 29.4057931,14 28.5755968,14 L28.0742706,14 C27.2435729,14 26.5702918,13.3285 26.5702918,12.5 L26.5702918,6 C26.5702918,5.172 27.2435729,4.5 28.0742706,4.5" id="Fill-27"></path>
                        <path d="M1.50397878,4.5 L2.00530504,4.5 C2.83600265,4.5 3.50928382,5.172 3.50928382,6 L3.50928382,12.5 C3.50928382,13.3285 2.83600265,14 2.00530504,14 L1.50397878,14 C0.673281167,14 -5.66213743e-14,13.3285 -5.66213743e-14,12.5 L-5.66213743e-14,6 C-5.66213743e-14,5.172 0.673281167,4.5 1.50397878,4.5" id="Fill-29"></path>
                        <path d="M7.5198939,0 L7.5198939,0 C9.1807878,0 10.0265252,1.3435 10.0265252,3 L10.0265252,15 C10.0265252,16.6565 9.1807878,18 7.5198939,18 C5.859,18 4.51193634,16.6565 4.51193634,15 L4.51193634,3 C4.51193634,1.3435 5.859,0 7.5198939,0" id="Fill-31"></path>
                    </g>
                    <path d="M107.572703,148.904998 C140.156607,146.914498 166.762472,148.316998 166.998413,152.037998 C167.234865,155.758498 141.011704,160.388498 108.4278,162.378498 C75.8438962,164.369498 49.2375214,162.966498 49.0015797,159.245998 C48.7656381,155.524998 74.9887987,150.894998 107.572703,148.904998" id="Fill-39" fill="#8ED2FF"></path>
                    <polygon id="Path" fill="#FFFFFF" points="149.702431 84.5838958 161 84.1818182 143.642857 109 146.194039 91.384199 134 91.8181818 151.357143 67"></polygon>
                    <path d="M68.397659,143.99995 L68.397659,156.99995 C68.397659,158.10445 67.5001191,158.99995 66.3931032,158.99995 L64.3885474,158.99995 C63.2815315,158.99995 62.3839916,158.10445 62.3839916,156.99995 L62.3839916,142.49995 C62.3839916,142.415286 62.3892654,142.331849 62.3995031,142.24995 C62.3892654,142.168051 62.3839916,142.084614 62.3839916,141.99995 L62.3839916,135.54133 L60.2822188,138.789097 C59.6897102,139.705059 58.4680039,139.96474 57.5541652,139.368963 L55.8993367,138.290781 C54.985498,137.695003 54.7251205,136.470024 55.3176291,135.554062 L61.2202473,126.433035 C61.7372807,125.633751 62.7330515,125.334278 63.5858878,125.666756 C63.8316563,125.559473 64.10314,125.49995 64.3885474,125.49995 L73.4090485,125.49995 C73.9995402,125.49995 74.5304307,125.754742 74.8972943,126.160137 C75.1366396,126.256259 75.3609201,126.399947 75.5552262,126.5912 L83.3319005,134.2502 C84.112675,135.0192 84.112675,136.2662 83.3319005,137.0352 L81.9176863,138.4272 C81.1369119,139.1962 79.8705337,139.1962 79.0897592,138.4272 L75.4136043,134.807144 L75.4136043,141.99995 C75.4136043,142.470011 75.251038,142.902217 74.9789442,143.243649 L78.9903333,155.7391 C79.3275998,156.7916 78.7467797,157.9176 77.6928845,158.2546 L75.7835451,158.8641 C74.7291488,159.2011 73.601085,158.6216 73.2633173,157.5691 L68.907083,143.99995 L68.397659,143.99995 Z M68.898798,109 C73.050233,109 76.4158822,112.358 76.4158822,116.5 C76.4158822,120.642 73.050233,124 68.898798,124 C64.7473629,124 61.3817137,120.642 61.3817137,116.5 C61.3817137,112.358 64.7473629,109 68.898798,109 Z" id="Combined-Shape" fill="#1D4C99" transform="translate(69.458741, 133.999975) scale(-1, 1) translate(-69.458741, -133.999975) "></path>
                    <path d="M101.705475,146.755387 L103.297075,146.863652 C103.761702,146.895257 104.112736,147.297532 104.081131,147.762159 C104.056106,148.130053 103.794939,148.439015 103.436348,148.524944 L81.940413,153.676006 C81.5449032,153.770782 81.1474481,153.526989 81.0526722,153.131479 C80.969214,152.783199 81.1484244,152.425375 81.4773127,152.283612 L85.5337306,150.535145 C86.0409065,150.316533 86.274834,149.728166 86.0562223,149.22099 C85.9078378,148.87674 85.5793822,148.644392 85.2053685,148.6191 L83.3861042,148.496075 C82.885539,148.462225 82.5071916,148.028996 82.5410415,147.528431 C82.5678565,147.131897 82.8493285,146.798831 83.2358411,146.706275 L104.68403,141.570203 C105.114839,141.46704 105.547708,141.732649 105.650872,142.163458 C105.740019,142.535736 105.553675,142.919126 105.205867,143.079026 L101.355634,144.84911 C100.853838,145.079803 100.634066,145.673603 100.864758,146.175399 C101.017692,146.508055 101.340192,146.730539 101.705475,146.755387 Z" id="Path" fill="#1D4C99" transform="translate(93.123043, 147.669095) rotate(5.000000) translate(-93.123043, -147.669095) "></path>
                    <circle id="Oval" fill="#F1F2F7" cx="91" cy="37" r="2"></circle>
                    <circle id="Oval-Copy-3" fill="#F1F2F7" cx="97" cy="37" r="2"></circle>
                    <circle id="Oval-Copy-4" fill="#F1F2F7" cx="103" cy="37" r="2"></circle>
                </g>
            </g>
        </g>
    </g>
</svg>