<?xml version="1.0" encoding="UTF-8"?>
<svg width="14px" height="14.0005007px" viewBox="0 0 14 14.0005007" version="1.1" xmlns="http://www.w3.org/2000/svg" xmlns:xlink="http://www.w3.org/1999/xlink">
    <title>编组 2</title>
    <g id="页面-1" stroke="none" stroke-width="1" fill="none" fill-rule="evenodd">
        <g id="对话窗UI1" transform="translate(-115.000000, -484.000000)">
            <g id="生成解读报告" transform="translate(64.000000, 471.000000)">
                <g id="编组-4" transform="translate(50.000000, 8.000000)">
                    <g id="编组-2" transform="translate(0.000000, 4.000000)">
                        <polygon id="路径" points="0 0 16 0 16 16 0 16"></polygon>
                        <path d="M9.94265349,1.03823444 L10.0234269,1.08089435 L13.026867,3.04675645 C13.164887,3.13660994 13.248203,3.28926771 13.248203,3.45353602 L13.2475235,5.13449506 L14.7506992,5.9790474 C14.878706,6.05097868 14.9664937,6.17520209 14.9922005,6.31636781 L15,6.40281753 L15,9.59787249 C15,9.78360592 14.8935753,9.95253087 14.7265998,10.0342575 L13.4976014,10.6371746 L13.4985312,12.547154 C13.4985312,12.6890058 13.4362905,12.821916 13.3310014,12.9133153 L13.2628157,12.962913 L10.0077791,14.9295636 C9.8552011,15.0209762 9.66443185,15.0241598 9.51027697,14.9371928 L7.99974967,14.0899877 L6.49022368,14.9371928 C6.44067359,14.964992 6.3870811,14.9838635 6.3318138,14.9933557 L6.24795267,15.0005007 C6.1580351,15.0005007 6.06940062,14.9760089 5.99170171,14.9291006 L2.7375119,12.9629596 C2.59132997,12.8747129 2.50196942,12.7173541 2.50196942,12.547154 L2.5018979,10.6371746 L1.27370055,10.0344047 C1.13032124,9.96422714 1.03164891,9.83009364 1.00638293,9.67623865 L1,9.59787249 L1,6.40281753 C1,6.22668437 1.09577723,6.06455584 1.24944517,5.97896634 L2.75197581,5.13546061 L2.75229766,3.20776257 C2.75229766,3.06231971 2.81746799,2.92648046 2.92700378,2.83513578 L2.99788267,2.78594745 L6.00094762,1.06603617 C6.15251846,0.978385816 6.33963318,0.97812091 6.49205808,1.06445829 L7.99974967,1.91824212 L9.50859696,1.06437095 C9.64277409,0.988523095 9.80320491,0.980332314 9.94265349,1.03823444 Z M6.24823876,2.04859161 L5.48738397,2.485021 L5.48802767,4.92379127 L4.50459531,4.92379127 L4.50445227,3.04793769 L3.73490751,3.48822929 L3.73490751,5.15670275 L4.74777131,5.81714016 L5.75580736,5.1576683 L5.75623649,3.70369499 L6.73966885,3.70369499 L6.73966885,5.41972369 C6.73966885,5.58364818 6.65647258,5.73608665 6.51883991,5.82617223 L5.23730606,6.66392906 L5.23730606,7.64106745 L6.30289015,8.47854106 C6.39699149,8.55221848 6.45985898,8.6570704 6.48124193,8.77240702 L6.48934061,8.8605521 L6.48866115,9.38871616 L7.50828382,8.6191714 L7.50828382,8.15474099 L6.28577745,7.43424868 L6.7951458,6.6007482 L8.25189012,7.4587199 C8.40045377,7.54643002 8.49221684,7.70540259 8.49221684,7.87745826 L8.49218107,11.0765006 L9.39786863,11.0765006 L9.43180608,11.0196036 C9.58946759,10.7871411 9.84216034,10.629014 10.1285713,10.5931144 L10.2532045,10.5853518 C10.7996544,10.5853518 11.2455771,11.0230601 11.2455771,11.5640601 C11.2455771,12.1048865 10.7995802,12.5427685 10.2532045,12.5427685 C9.91639062,12.5427685 9.61207728,12.374111 9.43185854,12.1085026 L9.39786863,12.0507424 L8.49218107,12.0507424 L8.49218107,13.2460955 L9.74257062,13.9480516 L12.5146697,12.2728193 L12.5150989,10.3351929 C12.5150989,10.1761311 12.5931458,10.0294264 12.7207352,9.93891725 L12.7885265,9.89854861 L13.4609105,9.56734323 L12.7888864,9.18981249 L12.7346371,9.22482536 C12.6261513,9.28447756 12.5069128,9.32377605 12.3821884,9.33969703 L12.2558303,9.34771351 C11.7092785,9.34771351 11.2634577,8.90990374 11.2634577,8.36900518 C11.2634577,7.82810662 11.7092785,7.39029687 12.2558303,7.39029687 C12.765781,7.39029687 13.1882906,7.77174067 13.2423588,8.26231173 L13.2460931,8.32564127 L14.0161027,8.7591764 L14.0161027,6.68613675 L12.5143599,5.84365562 C12.3860364,5.77177753 12.2982595,5.64750934 12.2725651,5.50624135 L12.2647706,5.41972369 L12.2645918,4.92303922 L11.9913711,4.92303922 L11.9693449,4.96370961 C11.8106933,5.21477752 11.5427484,5.38586018 11.2386951,5.42077895 L11.1231255,5.42738108 C10.5745202,5.42738108 10.1269979,4.98780031 10.1269979,4.44474039 C10.1269979,3.90168046 10.5745202,3.46209968 11.1231255,3.46209968 C11.4595731,3.46209968 11.7650889,3.62869933 11.9470004,3.89211076 L11.98075,3.94879749 L12.2645918,3.94879749 L12.2645918,3.71513396 L9.7329151,2.05824712 L8.49121552,2.76213436 L8.49121552,5.38071076 L9.72132848,6.07108028 L9.77693654,6.03718388 C9.88495911,5.97816852 10.0035631,5.93931683 10.1275778,5.92357945 L10.2532045,5.91565611 C10.7995802,5.91565611 11.2455771,6.35353804 11.2455771,6.89436445 C11.2455771,7.43519084 10.7995802,7.87307276 10.2532045,7.87307276 C9.74308942,7.87307276 9.32072228,7.49169182 9.26667383,7.00107046 L9.26269139,6.93331801 L7.75812335,6.08942907 C7.62979988,6.01755095 7.54202303,5.89328277 7.51632862,5.75202627 L7.50853415,5.66551699 L7.50828382,2.76213436 L6.24823876,2.04859161 Z M3.22413062,5.98997393 L1.9833966,6.68613675 L1.98243104,7.0916685 L2.98901062,6.59867629 L3.43181422,7.46865597 L1.98243104,8.17887979 L1.9833966,9.29505763 L2.97212161,9.78073017 L4.19851701,9.0584455 L4.70788337,9.89194271 L3.4848296,10.6120702 L3.4848296,12.2728193 L4.99109036,13.1823691 L6.65887659,12.0132138 L7.23367065,12.8038664 L5.90450233,13.7356302 L6.25692873,13.9480516 L7.50828382,13.2460955 L7.50828382,9.84445659 L4.85464772,11.8484847 L4.25172545,11.0788015 L5.50572945,10.1312255 L5.50572945,9.09518842 L4.72170141,8.48013194 L3.31544053,9.39713045 L2.76810802,8.58766887 L4.25340881,7.61885976 L4.25340881,6.66103241 L3.22413062,5.98997393 Z M10.2532045,11.3182867 L10.1958289,11.3247943 C10.08527,11.3503275 10.0028762,11.4479848 10.0028762,11.5640602 C10.0028762,11.6994813 10.1150233,11.8098336 10.2532045,11.8098336 C10.3913856,11.8098336 10.5035327,11.6994813 10.5035327,11.5640602 C10.5035327,11.428639 10.3913856,11.3182867 10.2532045,11.3182867 Z M12.2558303,8.12323173 L12.1984548,8.12973935 C12.0878959,8.15527257 12.0055021,8.2529299 12.0055021,8.36900519 C12.0055021,8.50442636 12.1176492,8.61477865 12.2558303,8.61477865 C12.3940115,8.61477865 12.5061586,8.50442636 12.5061586,8.36900519 C12.5061586,8.23358402 12.3940115,8.12323173 12.2558303,8.12323173 Z M10.2532045,6.64859098 C10.1150233,6.64859098 10.0028762,6.75894327 10.0028762,6.89436444 C10.0028762,7.0297856 10.1150233,7.14013789 10.2532045,7.14013789 L10.31058,7.13363027 C10.4211389,7.10809706 10.5035327,7.01043972 10.5035327,6.89436444 C10.5035327,6.75894327 10.3913856,6.64859098 10.2532045,6.64859098 Z M11.1231255,4.19503454 C10.983192,4.19503454 10.8690423,4.30710724 10.8690423,4.44474038 C10.8690423,4.58237351 10.983192,4.69444622 11.1231255,4.69444622 L11.1814461,4.68783685 C11.2938442,4.6619038 11.3777093,4.56271164 11.3777093,4.44474038 C11.3777093,4.30710724 11.2635596,4.19503454 11.1231255,4.19503454 Z" id="形状" fill="#FFFFFF"></path>
                    </g>
                </g>
            </g>
        </g>
    </g>
</svg>