<?xml version="1.0" encoding="UTF-8"?>
<svg width="392px" height="383px" viewBox="0 0 392 383" version="1.1" xmlns="http://www.w3.org/2000/svg" xmlns:xlink="http://www.w3.org/1999/xlink">
    <title>网格</title>
    <g id="Page-1" stroke="none" stroke-width="1" fill="none" fill-rule="evenodd">
        <g id="网格" fill="#B4D1F6">
            <g id="刻度尺">
                <rect id="肌肉量备份-15" x="348" y="10" width="44" height="1"></rect>
                <rect id="肌肉量备份-16" x="348" y="19" width="44" height="1"></rect>
                <rect id="肌肉量备份-17" x="348" y="29" width="44" height="1"></rect>
                <rect id="肌肉量备份-18" x="348" y="39" width="44" height="1"></rect>
                <rect id="肌肉量备份-19" x="0" y="48" width="392" height="1"></rect>
                <rect id="肌肉量备份-20" x="348" y="58" width="44" height="1"></rect>
                <rect id="肌肉量备份-21" x="348" y="67" width="44" height="1"></rect>
                <rect id="肌肉量备份-22" x="348" y="77" width="44" height="1"></rect>
                <rect id="肌肉量备份-23" x="348" y="87" width="44" height="1"></rect>
                <rect id="肌肉量备份-24" x="0" y="96" width="392" height="1"></rect>
                <rect id="肌肉量备份-25" x="348" y="106" width="44" height="1"></rect>
                <rect id="肌肉量备份-26" x="348" y="116" width="44" height="1"></rect>
                <rect id="肌肉量备份-27" x="348" y="125" width="44" height="1"></rect>
                <rect id="肌肉量备份-28" x="348" y="135" width="44" height="1"></rect>
                <rect id="肌肉量备份-29" x="0" y="145" width="392" height="1"></rect>
                <rect id="肌肉量备份-30" x="348" y="154" width="44" height="1"></rect>
                <rect id="肌肉量备份-31" x="348" y="164" width="44" height="1"></rect>
                <rect id="肌肉量备份-32" x="348" y="173" width="44" height="1"></rect>
                <rect id="肌肉量备份-33" x="348" y="183" width="44" height="1"></rect>
                <rect id="肌肉量备份-34" x="0" y="193" width="392" height="1"></rect>
                <rect id="肌肉量备份-35" x="348" y="202" width="44" height="1"></rect>
                <rect id="肌肉量备份-36" x="348" y="212" width="44" height="1"></rect>
                <rect id="肌肉量备份-37" x="348" y="222" width="44" height="1"></rect>
                <rect id="肌肉量备份-38" x="348" y="231" width="44" height="1"></rect>
                <rect id="肌肉量备份-39" x="0" y="241" width="392" height="1"></rect>
                <rect id="肌肉量备份-40" x="348" y="250" width="44" height="1"></rect>
                <rect id="肌肉量备份-41" x="348" y="260" width="44" height="1"></rect>
                <rect id="肌肉量备份-42" x="348" y="270" width="44" height="1"></rect>
                <rect id="肌肉量备份-43" x="348" y="279" width="44" height="1"></rect>
                <rect id="肌肉量备份-44" x="0" y="289" width="392" height="1"></rect>
                <rect id="肌肉量备份-45" x="348" y="301" width="44" height="1"></rect>
                <rect id="肌肉量备份-46" x="348" y="310" width="44" height="1"></rect>
                <rect id="肌肉量备份-47" x="348" y="320" width="44" height="1"></rect>
                <rect id="肌肉量备份-48" x="348" y="330" width="44" height="1"></rect>
                <rect id="肌肉量备份-49" x="0" y="339" width="392" height="1"></rect>
                <rect id="肌肉量备份-50" x="348" y="349" width="44" height="1"></rect>
                <rect id="肌肉量备份-51" x="348" y="358" width="44" height="1"></rect>
                <rect id="肌肉量备份-52" x="348" y="368" width="44" height="1"></rect>
                <rect id="肌肉量备份-53" x="348" y="378" width="44" height="1"></rect>
            </g>
            <g id="网格2" transform="translate(48.000000, 0.000000)">
                <rect id="肌肉量备份-87" x="0" y="0" width="1" height="383"></rect>
                <rect id="肌肉量备份-91" x="49" y="0" width="1" height="383"></rect>
                <rect id="肌肉量备份-92" x="98" y="0" width="1" height="383"></rect>
                <rect id="肌肉量备份-93" x="147" y="0" width="1" height="383"></rect>
                <rect id="肌肉量备份-94" x="196" y="0" width="1" height="383"></rect>
                <rect id="肌肉量备份-95" x="245" y="0" width="1" height="383"></rect>
                <rect id="肌肉量备份-96" x="294" y="0" width="1" height="383"></rect>
            </g>
        </g>
    </g>
</svg>