<?xml version="1.0" encoding="UTF-8"?>
<svg width="48px" height="48px" viewBox="0 0 48 48" version="1.1" xmlns="http://www.w3.org/2000/svg" xmlns:xlink="http://www.w3.org/1999/xlink">
    <title>add-circle-fill</title>
    <g id="项目选择&amp;继续测量" stroke="none" stroke-width="1" fill="none" fill-rule="evenodd">
        <g id="项目选择-按键模式备份" transform="translate(-1020.000000, -169.000000)">
            <g id="按键提示" transform="translate(1020.000000, 96.000000)">
                <g id="add-circle-fill" transform="translate(0.000000, 73.000000)">
                    <polygon id="路径" points="0 0 48 0 48 48 0 48"></polygon>
                    <path d="M24,43 C13.5063,43 5,34.4937 5,24 C5,13.5063 13.5063,5 24,5 C34.4937,5 43,13.5063 43,24 C43,34.4937 34.4937,43 24,43 Z" id="路径" fill="#333333"></path>
                    <polygon id="路径" fill="#FFFFFF" fill-rule="nonzero" points="22 22 14 22 14 26 22 26 22 34 26 34 26 26 34 26 34 22 26 22 26 14 22 14"></polygon>
                </g>
            </g>
        </g>
    </g>
</svg>