<?xml version="1.0" encoding="UTF-8"?>
<svg width="48px" height="48px" viewBox="0 0 48 48" version="1.1" xmlns="http://www.w3.org/2000/svg" xmlns:xlink="http://www.w3.org/1999/xlink">
    <title>posture/d</title>
    <defs>
        <path d="M20.7215463,0 C24.1594135,0 26.9726235,2.78436102 27.1679499,6.30411677 L27.1691815,6.34559673 L27.175963,8.07284076 C27.7002868,8.33966202 27.9823686,8.97062632 27.9823686,9.7841799 C27.9823686,10.0874141 27.975564,10.3690137 27.9616094,10.629591 L27.9478892,10.8478089 C27.911752,11.345038 27.8466198,11.7588778 27.7497288,12.0942274 C27.6230944,12.5325219 27.4249936,12.8883299 27.1437088,13.1151202 C27.0104919,14.1995802 26.5054437,15.2903786 25.7619225,16.2286857 L25.7619225,18.3982825 C25.7619225,20.5198716 27.508603,22.2382389 29.6613179,22.2382389 L30.3634599,22.2382389 C35.7724997,22.2382389 40.1558324,26.5505191 40.1558324,31.8681108 L40.1558324,35.9909467 C40.8656583,38.3368195 41.2930486,41.2251348 41.3714286,44.3018213 C41.143674,44.9387023 40.1305373,45.2435103 38.3320184,45.2162452 C36.5334994,45.1889801 35.340987,44.8842182 34.7544812,44.3019595 C34.3664673,42.911366 34.0949308,41.4351209 33.9624381,39.9331243 C33.8768033,38.9623296 32.4723937,38.9256491 32.3363046,39.8906528 C32.121657,41.4127133 31.8181024,42.8896591 31.4306082,44.3018549 C30.719176,44.9114484 27.1771514,45.2162452 20.8045345,45.2162452 C14.4319176,45.2162452 10.8868701,44.9114484 10.1693918,44.3018549 C9.78189757,42.8896591 9.47834303,41.4127133 9.26369535,39.8906528 C9.12760628,38.9256491 7.72319669,38.9623296 7.63756188,39.9331243 C7.5050692,41.4351209 7.23353267,42.911366 6.84551884,44.3019595 C6.40614884,44.9387484 5.2389074,45.2435103 3.34379451,45.2162452 C1.44868162,45.1889801 0.334083449,44.8841721 0,44.3018213 C0.0783799696,41.2251348 0.505770298,38.3368195 1.21559615,35.9909467 L1.21559615,31.8681108 C1.21559615,26.5505191 5.59892891,22.2382389 11.0079687,22.2382389 L11.7101106,22.2382389 C13.8628255,22.2382389 15.6095061,20.5198716 15.6095061,18.3982825 L15.6095061,16.1514887 C14.9074411,15.235681 14.4335859,14.1792171 14.3075055,13.1225843 C14.0174986,12.898101 13.8099513,12.5432491 13.6769975,12.1040982 C13.5720744,11.7575337 13.502534,11.3283742 13.4651335,10.8112292 L13.4518798,10.599666 C13.4383989,10.3473376 13.4318233,10.0756916 13.4318233,9.7841799 C13.4318233,8.97753371 13.7256782,8.35680619 14.264348,8.08889435 L14.264348,6.34875988 L14.2657277,6.30163016 C14.4719826,2.78163579 17.2857745,0 20.7215463,0 Z" id="path-1"></path>
        <ellipse id="path-3" cx="22.7428571" cy="15.2333333" rx="3.54285714" ry="2.51428571"></ellipse>
        <filter x="-105.8%" y="-149.1%" width="311.7%" height="398.3%" filterUnits="objectBoundingBox" id="filter-4">
            <feOffset dx="0" dy="0" in="SourceAlpha" result="shadowOffsetOuter1"></feOffset>
            <feGaussianBlur stdDeviation="2.5" in="shadowOffsetOuter1" result="shadowBlurOuter1"></feGaussianBlur>
            <feColorMatrix values="0 0 0 0 0.2   0 0 0 0 0.2   0 0 0 0 0.2  0 0 0 1 0" type="matrix" in="shadowBlurOuter1"></feColorMatrix>
        </filter>
        <ellipse id="path-5" cx="18.8571429" cy="15.2333333" rx="3.54285714" ry="2.51428571"></ellipse>
        <filter x="-105.8%" y="-149.1%" width="311.7%" height="398.3%" filterUnits="objectBoundingBox" id="filter-6">
            <feOffset dx="0" dy="0" in="SourceAlpha" result="shadowOffsetOuter1"></feOffset>
            <feGaussianBlur stdDeviation="2.5" in="shadowOffsetOuter1" result="shadowBlurOuter1"></feGaussianBlur>
            <feColorMatrix values="0 0 0 0 0.2   0 0 0 0 0.2   0 0 0 0 0.2  0 0 0 1 0" type="matrix" in="shadowBlurOuter1"></feColorMatrix>
        </filter>
        <path d="M37.6868235,21.7142857 C39.7968111,21.7142857 41.5072941,23.4265501 41.5072941,25.5387353 C41.5072941,27.6509205 39.7968111,29.3631848 37.6868235,29.3631848 C35.9564296,29.3631848 34.4947261,28.2115867 34.0248,26.6322308 L12.9682084,26.6322308 C12.4982823,28.2115867 11.0365787,29.3631848 9.30618487,29.3631848 C7.19619723,29.3631848 5.48571429,27.6509205 5.48571429,25.5387353 C5.48571429,23.4265501 7.19619723,21.7142857 9.30618487,21.7142857 C11.2307891,21.7142857 12.8230056,23.1388888 13.087933,24.9921573 L33.9050753,24.9921573 C34.1700027,23.1388888 35.7622193,21.7142857 37.6868235,21.7142857 Z M9.30618487,23.3533355 C8.10047765,23.3533355 7.12305882,24.3317723 7.12305882,25.5387353 C7.12305882,26.7456982 8.10047765,27.724135 9.30618487,27.724135 C10.5118921,27.724135 11.4893109,26.7456982 11.4893109,25.5387353 C11.4893109,24.3317723 10.5118921,23.3533355 9.30618487,23.3533355 Z M37.6868235,23.3533355 C36.4811163,23.3533355 35.5036975,24.3317723 35.5036975,25.5387353 C35.5036975,26.7456982 36.4811163,27.724135 37.6868235,27.724135 C38.8925307,27.724135 39.8699496,26.7456982 39.8699496,25.5387353 C39.8699496,24.3317723 38.8925307,23.3533355 37.6868235,23.3533355 Z" id="path-7"></path>
        <filter x="-18.0%" y="-71.9%" width="136.1%" height="270.0%" filterUnits="objectBoundingBox" id="filter-8">
            <feOffset dx="0" dy="1" in="SourceAlpha" result="shadowOffsetOuter1"></feOffset>
            <feGaussianBlur stdDeviation="2" in="shadowOffsetOuter1" result="shadowBlurOuter1"></feGaussianBlur>
            <feColorMatrix values="0 0 0 0 0.2   0 0 0 0 0.2   0 0 0 0 0.2  0 0 0 1 0" type="matrix" in="shadowBlurOuter1"></feColorMatrix>
        </filter>
    </defs>
    <g id="报告列表" stroke="none" stroke-width="1" fill="none" fill-rule="evenodd">
        <g id="测量项目补充说明" transform="translate(-308.000000, -905.000000)">
            <g id="posture/d" transform="translate(308.000000, 905.000000)">
                <rect id="矩形" x="0" y="0" width="48" height="48"></rect>
                <g id="Body-posture" transform="translate(3.200000, 1.828571)">
                    <mask id="mask-2" fill="white">
                        <use xlink:href="#path-1"></use>
                    </mask>
                    <use id="Mask" fill="#999999" xlink:href="#path-1"></use>
                    <g id="下颌阴影" mask="url(#mask-2)" transform="translate(22.742857, 15.233333) rotate(-56.000000) translate(-22.742857, -15.233333) ">
                        <use fill="black" fill-opacity="1" filter="url(#filter-4)" xlink:href="#path-3"></use>
                        <use fill="#D8D8D8" fill-rule="evenodd" xlink:href="#path-3"></use>
                    </g>
                    <g id="下颌阴影" mask="url(#mask-2)" transform="translate(18.857143, 15.233333) rotate(56.000000) translate(-18.857143, -15.233333) ">
                        <use fill="black" fill-opacity="1" filter="url(#filter-6)" xlink:href="#path-5"></use>
                        <use fill="#D8D8D8" fill-rule="evenodd" xlink:href="#path-5"></use>
                    </g>
                </g>
                <g id="形状结合备份-3">
                    <use fill="black" fill-opacity="1" filter="url(#filter-8)" xlink:href="#path-7"></use>
                    <use fill="#999999" fill-rule="evenodd" xlink:href="#path-7"></use>
                </g>
                <path d="M23.9754373,1.82857143 C27.4133045,1.82857143 30.2265145,4.61293245 30.4218409,8.1326882 L30.4230725,8.17416816 L30.429854,9.90141218 C30.9541779,10.1682334 31.2362596,10.7991978 31.2362596,11.6127513 C31.2362596,12.6090924 31.1627979,13.3718674 31.0036198,13.9227989 C30.8769854,14.3610933 30.6788846,14.7169013 30.3975998,14.9436917 C30.2643829,16.0281516 29.7593347,17.11895 29.0158135,18.0572572 C28.5680959,18.6436146 28.0080541,19.1665376 27.3356881,19.6260262 C26.327139,20.3152591 25.1605626,20.742935 23.9754373,20.742935 C22.7593471,20.742935 21.5662613,20.3000784 20.5435225,19.5874907 C19.8616966,19.1124322 19.3016548,18.576622 18.8633971,17.9800601 C18.1613321,17.0642524 17.6874769,16.0077885 17.5613965,14.9511557 C17.2713896,14.7266725 17.0638424,14.3718205 16.9308885,13.9326696 C16.7630116,13.3781664 16.6857143,12.6122199 16.6857143,11.6127513 C16.6857143,10.8061051 16.9795692,10.1853776 17.5182391,9.91746577 L17.5182391,8.17733131 L17.5196187,8.13020159 C17.7258736,4.61020722 20.5396655,1.82857143 23.9754373,1.82857143 Z" id="Body-posture-s备份-8" fill="#999999"></path>
            </g>
        </g>
    </g>
</svg>