<?xml version="1.0" encoding="UTF-8"?>
<svg width="72px" height="72px" viewBox="0 0 72 72" version="1.1" xmlns="http://www.w3.org/2000/svg" xmlns:xlink="http://www.w3.org/1999/xlink">
    <title>编组 21备份</title>
    <g id="设置" stroke="none" stroke-width="1" fill="none" fill-rule="evenodd">
        <g transform="translate(-60, -708)" id="list">
            <g transform="translate(12, 648)">
                <g id="编组-21备份" transform="translate(48, 60)">
                    <rect id="矩形备份-12" x="0" y="0" width="72" height="72"></rect>
                    <g id="编组-16" transform="translate(46, 6)" fill="#CEDBF5">
                        <rect id="矩形备份-13" transform="translate(16.1053, 30.5) scale(-1, 1) translate(-16.1053, -30.5)" x="14.2105263" y="1" width="3.78947368" height="59"></rect>
                        <rect id="矩形备份-14" transform="translate(9, 2) scale(-1, 1) translate(-9, -2)" x="0" y="0" width="18" height="4"></rect>
                        <rect id="矩形备份-15" transform="translate(10.8947, 21) scale(-1, 1) translate(-10.8947, -21)" x="3.78947368" y="19" width="14.2105263" height="4"></rect>
                        <rect id="矩形备份-16" transform="translate(10.8947, 40) scale(-1, 1) translate(-10.8947, -40)" x="3.78947368" y="38" width="14.2105263" height="4"></rect>
                        <rect id="矩形备份-17" transform="translate(9, 58) scale(-1, 1) translate(-9, -58)" x="0" y="56" width="18" height="4"></rect>
                    </g>
                    <g id="编组-13" transform="translate(8, 5)" fill="#CEDBF5">
                        <circle id="椭圆形备份-3" cx="15" cy="8" r="8"></circle>
                        <rect id="矩形备份-18" x="0" y="19" width="30" height="22"></rect>
                        <rect id="矩形备份-19" x="4" y="36" width="22" height="26"></rect>
                    </g>
                </g>
            </g>
        </g>
    </g>
</svg>